<svg width="136" height="64" viewBox="0 0 136 64" fill="none" xmlns="http://www.w3.org/2000/svg">
<path d="M19.8763 0.0640586C20.4666 0.0215218 21.1304 8.8939e-05 21.7198 0.0459737C22.05 0.0716703 22.458 0.137128 22.7332 0.331613C23.571 0.923865 24.3414 1.93333 25.061 2.68032C25.9721 3.62599 26.9423 4.52661 27.8046 5.51583C28.2432 4.17037 28.3018 1.18505 29.3133 0.284955C29.7592 -0.111883 36.7542 -0.0192835 37.7043 0.116754C37.8497 0.137586 38.0652 0.156873 38.1838 0.239385C38.9015 0.738752 40.3857 2.46583 41.0764 3.17199L45.0918 7.25147C45.846 8.02652 46.6556 8.78641 47.2991 9.65544C47.7821 10.3079 46.9653 12.2546 46.8328 13.0524C49.179 12.7333 51.1303 12.7232 53.4368 13.3279C54.1789 14.1213 55.2523 14.6617 56.0719 15.3944C57.6944 16.8455 59.206 18.5561 60.7057 20.1344C60.8773 19.5362 60.9194 18.8946 61.0389 18.284C61.2138 17.391 61.4769 16.5174 61.6641 15.6275C61.8697 14.6498 61.981 13.649 62.2475 12.684C62.3837 12.1901 62.653 11.6551 63.1288 11.4C63.5835 11.156 70.8895 11.1546 71.5628 11.3565C71.8428 11.4405 73.5815 13.0664 73.7495 13.3611C76.9136 12.8014 78.015 12.6061 80.8428 14.2003C81.2233 14.418 86.1219 19.4184 86.194 19.6176C86.7254 19.308 87.1867 18.464 87.5646 17.9789C88.6422 16.5954 89.9795 15.1004 91.5575 14.288C94.5725 12.7362 98.3988 12.3354 101.657 13.3578C102.181 13.5224 102.65 13.7298 103.084 14.0714C103.512 14.409 108.405 19.4615 108.51 19.6638L113.003 19.6642C113.404 19.2387 114.29 14.0549 114.696 12.9549C114.816 12.6284 114.942 12.4195 115.269 12.2755C115.897 11.9989 119.922 11.9219 120.515 12.1849C120.923 12.3653 129.616 21.3391 129.735 21.6314C129.777 21.6838 129.805 21.7211 129.83 21.7835C129.955 22.0948 129.924 22.558 129.773 22.8541C129.786 22.8622 129.8 22.8703 129.813 22.878C129.898 22.9258 129.981 22.9729 130.061 23.0297C130.88 23.6156 131.662 24.6187 132.368 25.3465C133.465 26.4766 134.676 27.5893 135.689 28.7897C135.807 28.9298 135.896 29.0445 135.924 29.2299C135.962 29.3205 135.989 29.4082 135.996 29.5064C136.057 30.3545 135.327 34.2531 134.745 34.8178C134.295 35.256 127.96 35.0503 126.922 35.0473C126.936 35.0809 126.938 35.0816 126.95 35.1217C127.026 35.3705 125.721 41.4818 125.533 41.841C125.53 41.8502 125.529 41.8598 125.525 41.8683C125.362 42.2114 124.871 42.4658 124.539 42.6119C123.485 42.7936 121.008 42.6279 119.823 42.6156C119.739 42.4242 119.298 42.2209 119.124 42.0759C118.804 41.8098 118.52 41.4803 118.227 41.1841C116.915 39.8547 115.61 38.5177 114.314 37.1733C113.619 36.4493 112.716 35.2593 111.89 34.7368L111.823 34.746L111.824 34.6565L111.682 34.5352L111.668 34.5889C112.139 35.4905 115.106 38.0997 116.004 39.1503C116.319 39.5195 116.579 39.9461 116.528 40.4469C116.456 41.1469 115.437 42.3321 114.901 42.7672C114.886 42.7797 114.87 42.792 114.854 42.8045C114.862 43.1753 113.718 44.4161 113.43 44.7533C113.349 44.8678 110.872 47.3651 110.599 47.6114C110.393 47.7967 110.159 47.9494 109.923 48.0943C106.626 50.1216 103.351 51.4518 99.3921 51.0864C98.5605 51.0097 97.6866 50.9167 96.8957 50.642C96.323 50.4429 95.7455 50.1964 95.2125 49.9088C94.5838 49.5696 94.0509 49.1332 93.3438 48.9722C93.3477 48.9157 93.3504 48.8709 93.3348 48.8156C93.3008 48.6932 93.2277 48.5609 93.1432 48.4659C92.7668 48.043 89.851 45.0349 89.6569 44.9323C89.3562 44.9073 89.3922 44.9861 89.2292 45.2259C88.0358 46.9826 86.8788 48.3307 85.0052 49.4368C81.7145 51.3797 78.4574 51.4688 74.8262 50.5764C74.9154 51.2814 74.3286 52.7499 74.164 53.5212C73.696 55.7169 73.2672 57.9239 72.7832 60.1165C72.631 60.8059 72.5089 61.5602 71.8631 61.9691C70.7394 62.238 63.3369 64.2795 62.7142 63.9677C61.913 63.5667 54.3896 55.7816 53.6749 54.8803C53.484 54.6397 53.3876 54.3496 53.291 54.0631C53.539 53.0082 53.7175 51.9547 53.8787 50.8843C53.2658 50.9632 52.638 50.9896 52.02 51.0034C51.1767 51.0221 50.3011 51.0367 49.4756 50.8481C45.7965 50.008 42.9901 46.0924 40.3738 43.6236C40.0891 44.5044 39.8506 45.4264 39.669 46.3333C39.3766 47.7939 39.3323 49.8168 38.2409 50.9471C36.787 51.0763 35.29 51.0047 33.8304 51.0054C32.4191 51.0062 30.9615 51.0829 29.5567 50.948C27.8504 49.1324 26.0442 47.3998 24.2835 45.6371C24.1169 46.6106 23.5614 50.1785 22.9509 50.7086C22.7256 50.9042 22.2647 50.9564 21.9742 50.9843C20.9699 51.0808 19.8997 51.0118 18.887 51.0115C17.3202 51.0111 15.7391 51.0513 14.1742 50.9775C14.0465 50.8869 13.9192 50.7929 13.7982 50.6939C12.6403 49.747 11.3071 48.1733 10.2324 47.0698C8.53958 45.3317 6.7282 43.6382 5.12368 41.8248C5.00873 41.6949 4.88247 41.5729 4.86739 41.3926C4.72171 39.6625 5.37068 37.9682 5.71133 36.2926C6.4064 32.8747 7.12553 29.4712 7.8893 26.0662C7.85316 26.0398 7.81774 26.0124 7.78305 25.9841C6.98057 25.3308 6.26579 24.4699 5.54217 23.7271C3.834 21.9738 1.67546 20.1189 0.488299 17.9652C0.216129 17.4714 0.094133 16.9162 0.0406006 16.3606C-0.253284 13.3106 1.07874 9.94732 3.04949 7.60372C3.54756 7.01133 4.14392 6.50668 4.72084 5.99116C5.24312 5.52449 5.76265 5.03192 6.33102 4.62114C6.92708 4.19047 7.57895 3.846 8.22068 3.48723C8.9572 3.07551 9.7046 2.611 10.4763 2.26985C13.0522 1.13118 17.0722 0.315874 19.8763 0.0640586Z" fill="#0E0E1C"/>
<path d="M115.866 13.4655C117.248 13.4469 118.63 13.4531 120.011 13.4841C120.016 13.494 120.021 13.5036 120.024 13.5139C120.106 13.7959 118.658 20.4536 118.426 20.8758L126.108 20.8778C126.139 20.9538 126.163 21.0312 126.168 21.1133C126.199 21.5491 125.56 24.6377 125.313 24.9429C122.711 25.0339 120.082 24.9532 117.477 24.9505C117.495 24.9951 117.508 25.0312 117.514 25.0792C117.536 25.2668 116.148 31.4387 115.975 32.02C115.922 32.1994 115.862 32.3271 115.743 32.4732C115.447 32.6747 112.123 32.5294 111.536 32.5254C111.582 32.477 111.622 32.4254 111.651 32.3657C111.9 31.8592 113.101 26.2051 113.231 25.3249C113.249 25.1988 113.225 25.0748 113.188 24.9545L105.549 24.9427C105.643 24.8542 105.708 24.7679 105.754 24.6469C106.025 23.9339 106.784 21.4934 106.497 20.8769L114.14 20.8772C114.149 20.866 114.158 20.8547 114.167 20.8437C114.323 20.6531 114.386 20.4418 114.449 20.2089C114.652 19.4539 114.72 18.6617 114.876 17.8956C115.065 16.9712 115.341 16.0664 115.521 15.1391C115.607 14.6956 115.614 13.8002 115.866 13.4655Z" fill="#FBF6E5"/>
<path d="M97.4625 14.027C99.3126 13.9952 101.218 14.0729 102.676 15.3715C103.62 16.2122 103.959 17.4939 104.021 18.7095C104.154 21.3056 103.081 23.7677 101.346 25.6667C98.78 28.474 95.3977 29.925 91.6112 30.1178C91.8817 30.7518 91.4768 32.4105 91.6029 33.2484C91.7013 33.9028 92.3421 35.2165 92.3142 35.7283C93.1153 36.0459 93.6555 36.5383 94.5505 36.6748C96.9943 37.0473 99.5758 36.0471 101.513 34.6328C102.099 34.2053 104.67 32.0062 104.77 31.3575C105.368 31.3439 105.968 31.3586 106.566 31.3628C106.575 31.4125 106.578 31.4153 106.577 31.4613C106.571 32.0311 104.738 34.3252 104.294 34.7832C104.168 35.1195 103.576 35.6398 103.323 35.9146C100.725 38.7401 97.0785 40.8729 93.1618 41.0541C90.6233 41.1714 88.0092 40.9669 86.0399 39.1853C84.2975 37.6089 83.8625 35.4623 83.7732 33.2285C83.568 28.1006 85.7217 21.5463 89.2887 17.7574C89.3537 17.6873 89.4196 17.618 89.4864 17.5494C89.5532 17.4809 89.6208 17.4132 89.6892 17.3464C89.7576 17.2795 89.8269 17.2135 89.8971 17.1484C89.9672 17.0832 90.0382 17.0189 90.1099 16.9553C90.1816 16.8919 90.2541 16.8294 90.3274 16.7678C90.4007 16.7062 90.4748 16.6454 90.5497 16.5855C90.6245 16.5257 90.7 16.4668 90.7764 16.4088C90.8527 16.3508 90.9297 16.2937 91.0074 16.2375C91.0852 16.1814 91.1637 16.1263 91.2427 16.0721C91.3219 16.018 91.4017 15.9647 91.4822 15.9125C91.5627 15.8602 91.6438 15.8089 91.7256 15.7586C91.8073 15.7084 91.8896 15.6592 91.9726 15.611C92.0556 15.5627 92.1392 15.5155 92.2233 15.4692C92.3075 15.423 92.3923 15.3779 92.4776 15.3339C92.5629 15.2897 92.6488 15.2466 92.7352 15.2045C92.8216 15.1625 92.9085 15.1216 92.9958 15.0816C93.0833 15.0417 93.1712 15.0029 93.2596 14.9651C93.3481 14.9275 93.4369 14.8908 93.5262 14.8553C93.6155 14.8197 93.7052 14.7852 93.7954 14.7518C93.8856 14.7184 93.9762 14.6861 94.0672 14.655C94.1582 14.6239 94.2496 14.5938 94.3413 14.5648C94.433 14.5359 94.5251 14.5081 94.6176 14.4814C94.7101 14.4548 94.8028 14.4293 94.8959 14.4049C94.989 14.3804 95.0824 14.3572 95.1761 14.335C95.2697 14.3129 95.3637 14.2919 95.4579 14.2721C95.552 14.2523 95.6464 14.2337 95.7411 14.2161C95.8358 14.1987 95.9307 14.1823 96.0257 14.1671C96.1208 14.1519 96.2161 14.1379 96.3115 14.125C96.4069 14.1122 96.5025 14.1005 96.5983 14.0899C96.694 14.0795 96.7899 14.0701 96.8857 14.0619C96.9817 14.0538 97.0777 14.0468 97.1739 14.0409C97.27 14.035 97.3662 14.0304 97.4625 14.027Z" fill="#FBF6E5"/>
<path d="M98.2641 16.8339C98.5907 16.8069 98.9121 16.8562 99.2356 16.8956C99.5442 17.1022 99.7109 17.5821 99.7931 17.9255C100.219 19.7032 99.4844 22.0242 98.5429 23.5379C97.3887 25.3934 95.5484 26.8854 93.3842 27.3981C93.0951 27.6279 92.3737 27.6384 92.0117 27.6747C92.3716 27.2103 92.3608 26.3301 92.5421 25.7633C93.3482 23.242 94.2455 20.6415 95.8911 18.5174C96.4996 17.7319 97.2316 16.9698 98.2641 16.8339Z" fill="#0E0E1C"/>
<path d="M18.5931 1.34666C19.6537 1.12333 21.0246 1.3058 22.1036 1.39851L20.9681 6.48575C20.7776 7.31497 20.5338 8.13446 20.3614 8.96732L19.3496 13.7245C19.1217 14.834 18.9455 15.9303 18.6564 17.0293L26.4571 17.0333C27.2687 13.9422 27.847 10.8099 28.5045 7.6868C28.6824 6.84197 28.9312 6.01191 29.114 5.16809C29.3884 3.90162 29.5925 2.64685 29.923 1.38926L37.5043 1.39286C37.4032 2.75905 37.0007 4.04515 36.6928 5.3725C36.5228 6.10626 36.4442 6.85584 36.2905 7.59234C36.1194 8.4134 35.875 9.21914 35.7026 10.0401L31.1437 31.5064C30.9601 32.3813 30.6977 33.2399 30.51 34.1139C30.3492 34.8629 30.2606 35.626 30.0909 36.3733C29.7468 37.887 29.3739 39.3105 29.1938 40.857H21.3925C21.7821 39.2764 22.0644 37.6962 22.4178 36.112L24.9629 24.5407C25.2148 23.3673 25.3897 22.1835 25.6652 21.0133L19.8125 21.0155L17.8928 21.0122C17.4979 22.4181 17.2953 23.8347 16.9759 25.2519L14.2799 37.4071C14.0235 38.5559 13.8682 39.7153 13.5824 40.8612L5.91214 40.8577C6.06057 39.5862 6.4721 38.3623 6.73433 37.1121L8.85867 27.3697L11.8584 13.3971C12.0129 12.6619 12.1112 11.9151 12.2753 11.1823C12.4649 10.3354 12.7092 9.50057 12.8834 8.65048C13.1389 7.40293 13.3501 6.16446 13.6541 4.92476C11.1471 5.83896 8.72197 8.03412 7.51275 10.3665C6.36904 12.5723 5.72703 15.7771 6.24742 18.2108C6.38556 18.8561 6.71027 19.4603 6.91524 20.0893C5.4058 20.1036 3.99668 19.9915 2.77006 19.0278C1.82024 18.2815 1.36296 16.9864 1.2353 15.8283C0.955041 13.2858 2.18443 10.5995 3.78084 8.65696C7.33416 4.33285 13.0971 1.92245 18.5931 1.34666Z" fill="#FBF6E5"/>
<path d="M63.4763 12.5809C64.2908 12.3577 69.7289 12.519 70.9843 12.5233C71.0132 12.5782 71.0377 12.6342 71.0526 12.6945C71.206 13.3168 70.6348 15.822 70.239 16.4028C70.8179 16.2415 71.4365 15.7253 71.9461 15.4071C73.2335 14.6035 75.1247 14.1747 76.6349 14.1734C78.2287 14.1721 79.9759 14.771 81.1087 15.9012C82.9038 17.6922 83.0868 20.6158 83.0755 22.9858C83.051 28.0989 81.5904 34.379 77.7898 38.0728C75.4632 40.3343 72.8192 41.1027 69.6381 41.0748C68.2135 41.0624 67.0186 40.8415 65.9381 39.8604C65.7302 39.6717 65.5653 39.4184 65.3635 39.2153C65.3748 39.25 65.3757 39.2496 65.3841 39.2905C65.4195 39.4615 62.7166 51.9726 62.6796 52.0291C61.7484 52.2207 60.8371 52.5364 59.9123 52.7606C59.1553 52.9441 58.3789 53.0368 57.6244 53.2318C56.6419 53.4856 55.6746 53.7892 54.6738 53.9683C54.8489 52.6731 55.1913 51.451 55.4828 50.1808C55.6556 49.4279 55.7527 48.6596 55.9134 47.9043C56.0953 47.0493 56.3434 46.2089 56.5236 45.3537L58.4947 36.0933C58.8045 34.6789 59.024 33.288 59.4101 31.884C59.7112 30.7541 59.8559 29.6135 60.1068 28.4763C60.3763 27.2553 60.7756 26.0475 60.9216 24.8038C60.9558 24.5121 60.9577 24.2667 60.8635 23.9824C59.5378 24.6128 58.1016 24.8884 56.656 25.0724C56.1182 29.3943 54.8836 34.1519 51.7811 37.4148C49.8732 39.4214 47.2245 40.9071 44.3957 40.9999C41.9133 41.0814 39.4319 40.6967 37.5579 38.9489C35.8638 37.3689 35.4459 35.3593 35.3863 33.1462C35.2423 27.7959 37.1957 21.7078 40.9782 17.7884C43.1205 15.5685 46.2194 14.0937 49.3387 14.016C51.2776 13.9676 53.1215 14.237 54.5827 15.6222C56.4643 17.4061 56.6928 20.1115 56.7373 22.5289C56.7729 22.5301 56.8085 22.5315 56.8441 22.5316C57.864 22.5376 60.8316 22.1802 61.5556 21.4819C61.5654 21.4699 61.5754 21.4583 61.5846 21.446C61.6474 21.363 61.7086 21.2624 61.7339 21.1614C61.8869 20.5527 61.9353 19.9063 62.0634 19.2889C62.2607 18.3378 63.5536 13.0468 63.4763 12.5809Z" fill="#FBF6E5"/>
<path d="M50.1866 17.1309C50.6115 17.1437 51.0531 17.1665 51.411 17.4183C52.2287 17.9935 52.3128 19.2953 52.462 20.2017C52.4157 20.2233 52.37 20.2461 52.325 20.2701C51.6064 20.6548 50.9776 21.428 50.7587 22.1991C50.4996 23.1126 50.6979 23.9664 51.1545 24.7749L52.1671 25.3481C51.9422 26.2898 51.861 27.2581 51.6534 28.2033C51.3928 29.3895 50.8935 30.6322 50.4206 31.7559C49.7887 33.2576 48.5305 35.4053 46.9362 36.0513C46.7605 36.1 46.5834 36.1438 46.4051 36.1827C45.7632 36.3186 44.8632 36.2348 44.3115 35.8701C43.7897 35.5251 43.5811 34.9438 43.4632 34.3612C42.5823 30.0065 44.5592 23.1955 47.0378 19.5713C47.8148 18.4354 48.7705 17.4056 50.1866 17.1309Z" fill="#0E0E1C"/>
<path d="M72.6889 17.9566C73.2612 17.9188 73.8621 17.9249 74.3609 18.2425C75.1213 18.7267 75.5072 19.7694 75.691 20.6075C76.4517 24.0779 74.8871 30.7251 72.9696 33.6411C72.044 35.0486 70.8763 36.0905 69.1833 36.4459C68.651 36.6485 67.9825 36.5814 67.4601 36.3878C66.9474 36.1978 66.5625 35.9202 66.3381 35.4206C66.3303 34.9117 66.5426 34.3082 66.6448 33.8054C66.962 32.246 67.3079 30.7086 67.6413 29.1544L68.8445 23.6823C69.0141 22.8789 69.0966 22.0543 69.2997 21.2588C69.4015 20.8602 69.5016 20.5115 69.7299 20.1639C70.3859 19.1655 71.4897 18.2111 72.6889 17.9566Z" fill="#0E0E1C"/>
</svg>
