<?xml version="1.0" encoding="UTF-8"?> <svg xmlns="http://www.w3.org/2000/svg" width="322.128" height="48.681" viewBox="0 0 322.128 48.681"><g id="Group_21" data-name="Group 21" transform="translate(724.564 -607.985)"><path id="Path_43" data-name="Path 43" d="M600.957,506.336c.408-.856.676-1.306.846-1.791,1.111-3.156,2.219-6.313,3.291-9.482.846-2.5.823-2.507-.99-4.354,1.753-1.069,3.708-.814,5.853-1.231-.6,1.775-1.111,3.3-1.637,4.82q-4.348,12.56-8.7,25.12a13.662,13.662,0,0,0-.569,2.032,6.683,6.683,0,0,0,.1,1.478c2.711-.821,4.191-2.883,6.085-4.475.116,2.722-5.54,7.074-8.669,6.79a1.627,1.627,0,0,1-.523-2.036c.594-1.9,1.226-3.8,1.832-5.7a1.8,1.8,0,0,0-.009-1.264c-.294.311-.6.613-.879.936-1.537,1.774-2.961,3.664-4.633,5.3a8.5,8.5,0,0,1-6.051,2.883c-2.065-.015-3.089-.829-3.1-2.922a13.143,13.143,0,0,1,.6-3.969,20.756,20.756,0,0,1,10.006-12.246,11.472,11.472,0,0,1,2.952-1.128,3.661,3.661,0,0,1,4.2,1.233m-.851,2.244c-.026-2.2-1.407-3.1-3.193-2.215a8.725,8.725,0,0,0-2.146,1.518,37.106,37.106,0,0,0-8.405,12.054,8.711,8.711,0,0,0-.634,2.367c-.152,1.249.638,1.895,1.828,1.465a10.824,10.824,0,0,0,2.643-1.358,27.053,27.053,0,0,0,7.256-7.6,40.859,40.859,0,0,0,2.425-5.245,4.323,4.323,0,0,0,.225-.985" transform="translate(-1101.698 118.591)" fill="#00a148"></path><path id="Path_33" data-name="Path 33" d="M.665,520.534l.652,1.555a9.878,9.878,0,0,0,4.213,5.046,7.689,7.689,0,0,0,5.46.85c4.361-.887,6.339-5.52,3.961-9.5a12.074,12.074,0,0,0-3.028-3.128c-1.527-1.186-3.233-2.141-4.852-3.21a13.093,13.093,0,0,1-4.131-4.033,8.426,8.426,0,0,1,.574-9.725,9.255,9.255,0,0,1,6.531-3.075,18.843,18.843,0,0,1,7.861.972,13.187,13.187,0,0,1,.7,6.109,7.463,7.463,0,0,1-.882-.784,2.326,2.326,0,0,1-.255-.652c-1.326-3.728-4.782-5.154-8.561-4.289a5.375,5.375,0,0,0-3.869,6.705c.632,2.32,2.291,3.764,4.2,5.006,1.972,1.281,4,2.485,5.9,3.87a9.754,9.754,0,0,1,4.006,6.405,8.661,8.661,0,0,1-7,10.345,17.116,17.116,0,0,1-9.209-.621A2.885,2.885,0,0,1,.6,525.861c-.16-1.4-.43-2.778-.6-4.173a3.821,3.821,0,0,1,.2-1.106l.457-.047" transform="translate(-724.564 114.865)" fill="#0064a8"></path><path id="Path_40" data-name="Path 40" d="M325.469,534.125a8.13,8.13,0,0,0,.8,1.141c2.045,2.144,3.978,1.9,5.253-.8a27.512,27.512,0,0,0,1.662-4.816c1.582-6.074,3.087-12.168,4.627-18.253.326-1.288.676-2.57,1.073-4.078l-4.1-.2c-.261-.719-.169-1.183.654-1.239.645-.043,1.295,0,1.941-.033s1.261-.108,1.9-.166c.707-1.99,1.313-3.886,2.052-5.728,1.283-3.2,2.962-6.16,5.85-8.211a8.659,8.659,0,0,1,7.3-1.7,3.144,3.144,0,0,1,2.546,2.6c.109,1.15-.595,2.266-2.109,3.148-.177-.645-.349-1.242-.506-1.842-.789-3.014-3.56-3.854-5.753-1.621a16.631,16.631,0,0,0-2.65,3.708,42.357,42.357,0,0,0-3.317,9.284c.925.881,2.038.432,3.043.516,1.03.086,2.067.072,3.059.1.194,1.041-.32,1.236-.981,1.246-1.177.018-2.355.01-3.532.012-.637,0-1.274,0-2.011,0-.284.789-.557,1.426-.745,2.086-1.767,6.207-3.457,12.437-5.31,18.618a33.08,33.08,0,0,1-2.6,6.335,7.227,7.227,0,0,1-7.445,4.013,2.2,2.2,0,0,1-2.194-2.607c.073-.722.4-1.2,1.484-1.515" transform="translate(-934.06 118.376)" fill="#00a148"></path><path id="Path_41" data-name="Path 41" d="M459.134,553.622c-.741-1.067-.25-1.771,0-2.458.83-2.321,1.712-4.622,2.56-6.936a1.332,1.332,0,0,0-.057-1.065q-1.552,1.759-3.1,3.518a34.428,34.428,0,0,1-6.644,6.019,6.311,6.311,0,0,1-2.59.935c-1.014.137-1.577-.413-1.549-1.449a8.792,8.792,0,0,1,.522-2.733c1.409-3.858,2.9-7.687,4.339-11.535.209-.56.706-1.168-.088-1.833-2.086.369-3.227,2.313-5,3.338,0-1.363.607-2.136,3.456-4.072,1.649-1.121,3.231-2.64,5.46-1.857.659.98.112,1.735-.165,2.463-1.524,4-3.1,7.987-4.65,11.979a4.689,4.689,0,0,0-.434,1.333,7.97,7.97,0,0,0,.233,1.622,6.635,6.635,0,0,0,3.489-2.024,40.152,40.152,0,0,0,9.768-12.8c.445-.883.906-1.757,1.43-2.769l2.033.678c-1.963,5.656-4.353,10.993-6.057,16.494.858.84,1.5.348,2.019-.053,1.02-.786,1.977-1.658,2.922-2.535.243-.225.349-.6.668-.779.643,1.516-.526,2.1-1.232,2.766-2.075,1.944-4.139,4.027-7.322,3.759" transform="translate(-1013.956 90.268)" fill="#00a148"></path><path id="Path_34" data-name="Path 34" d="M117.885,553.461c-5.658.354-10.112-4.027-10.079-10,.029-5.249,3.493-10.594,10.368-10.6,6.355-.009,10.044,4.416,10.043,10.182,0,6.692-4.775,10.761-10.332,10.423m6.234-9.557a19.387,19.387,0,0,0-.014-2.289,9.862,9.862,0,0,0-2.319-5.606c-2.654-2.958-6.811-2.534-8.666.991a12.626,12.626,0,0,0-1.275,4.175,11.973,11.973,0,0,0,2.076,8.877,5.231,5.231,0,0,0,9.142-.693,9.555,9.555,0,0,0,1.056-5.454" transform="translate(-794.278 90.54)" fill="#0064a8"></path><path id="Path_44" data-name="Path 44" d="M537.418,547.674c-.725,3.38-5.7,6.414-8.788,5.705-.57-.7-.277-1.412.02-2.129,1.639-3.96,3.284-7.918,4.9-11.888a26.275,26.275,0,0,0,.94-2.838,1.5,1.5,0,0,0-.924-1.931,6.609,6.609,0,0,0-3.354,2.025c-3.749,3.333-6.4,7.486-8.774,11.837-.76,1.392-1.535,2.777-2.259,4.187a1.381,1.381,0,0,1-2.019.8c-.471-.77-.02-1.474.228-2.16,1.561-4.3,3.158-8.6,4.723-12.9.289-.8.8-1.582.378-2.6-2.037-.159-3.29,1.316-4.814,2.236.064-2.477,4.865-5.253,7.75-4.523.611.848.178,1.68-.127,2.484-.769,2.031-1.592,4.04-2.371,6.068a13.433,13.433,0,0,0-.383,1.432l.323.157c.335-.442.678-.878,1-1.327a32.04,32.04,0,0,1,7.035-7.6,6.28,6.28,0,0,1,4.407-1.481c1.372.145,2.132.771,2.012,2.141a15.854,15.854,0,0,1-.934,4.259c-1.22,3.177-2.629,6.281-3.933,9.426-.253.609-.375,1.273-.655,2.254,2.484-.529,3.856-2.074,5.617-3.633" transform="translate(-1058.857 90.319)" fill="#00a148"></path><path id="Path_50" data-name="Path 50" d="M855.138,553.635l-1.855-.141c.221-.76.359-1.364.57-1.941,1.588-4.356,3.2-8.7,4.781-13.062.292-.8.832-1.582.41-2.722-2.042-.269-3.257,1.422-4.85,2.254.218-2.55,4.929-5.258,7.8-4.505a2.068,2.068,0,0,1-.049,2.14q-1.412,3.512-2.78,7.042a1.2,1.2,0,0,0,.142,1.08c.339-.436.7-.86,1.014-1.31a31.407,31.407,0,0,1,7.132-7.742,6.47,6.47,0,0,1,4.05-1.505c1.709.065,2.569.8,2.391,2.523a16.437,16.437,0,0,1-1.076,4.235c-1.218,3.115-2.594,6.168-3.877,9.258a18.821,18.821,0,0,0-.568,2.093c2.458-.578,3.879-2.048,5.448-3.353-.142,1.765-1.5,2.649-2.655,3.6-2.118,1.75-4.032,2.261-5.988,1.809a1.812,1.812,0,0,1-.045-1.972c1.631-3.962,3.276-7.918,4.88-11.891a29.742,29.742,0,0,0,.957-3.007,1.547,1.547,0,0,0-.83-1.943,7.117,7.117,0,0,0-3.286,1.975,41.213,41.213,0,0,0-8.4,11.027c-1.083,1.947-2.141,3.909-3.316,6.057" transform="translate(-1276.349 90.305)" fill="#00a148"></path><path id="Path_45" data-name="Path 45" d="M666.519,532.638l1.517-3.214,1.886.258a20.321,20.321,0,0,1-.52,1.976c-1.88,4.936-3.784,9.862-5.671,14.8-.207.542-.356,1.107-.5,1.562.347.865.893.915,1.477.564,1-.6,1.977-1.257,2.951-1.907.506-.338.985-.714,1.771-1.289-1.37,3.4-5.883,6.115-9.061,5.582a5.35,5.35,0,0,1-.015-1.561c.382-1.352.893-2.667,1.332-4,.152-.464.242-.949.359-1.425l-.324-.18c-.351.354-.716.7-1.05,1.065a24.44,24.44,0,0,1-7.318,5.718,6.352,6.352,0,0,1-2.356.581,1.515,1.515,0,0,1-1.851-1.628,8.712,8.712,0,0,1,.3-2.94,27.189,27.189,0,0,1,5.628-9.675,16.768,16.768,0,0,1,6.187-4.836c1.759-.757,3.482-1.067,5.26.558m-12.771,16.5c5.877-3.008,9.5-7.99,11.642-14.091-1.13-2.651-3.344-2.617-4.967-1.319a21.222,21.222,0,0,0-7.7,13.6c-.116.692.036,1.278,1.024,1.806" transform="translate(-1144.33 92.76)" fill="#00a148"></path><path id="Path_42" data-name="Path 42" d="M387.812,547.817a17.072,17.072,0,0,1,7.51-13.316,7.72,7.72,0,0,1,4.148-1.311c3.168-.125,4.948,1.437,5.205,4.88A15.357,15.357,0,0,1,402.654,546a18.257,18.257,0,0,1-4.369,5.484,8.372,8.372,0,0,1-6.857,2.1,4,4,0,0,1-3.494-3.656c-.1-.7-.085-1.406-.123-2.11m14.12-10.153-.218-.076a10.784,10.784,0,0,0-.113-1.221c-.407-1.992-1.9-2.707-3.668-1.707a5.781,5.781,0,0,0-1.619,1.322,27.486,27.486,0,0,0-5.64,12.694,4.869,4.869,0,0,0,.337,2.553,2.121,2.121,0,0,0,3.044,1.172,5.669,5.669,0,0,0,2.893-2.471,41.353,41.353,0,0,0,2.9-5.6c.861-2.156,1.4-4.44,2.08-6.668" transform="translate(-975.347 90.329)" fill="#00a148"></path><path id="Path_49" data-name="Path 49" d="M799.487,553.856c-4.1-.059-5.162-2.939-4.98-6.022a17.121,17.121,0,0,1,6.006-12.153,8.706,8.706,0,0,1,6.755-2.46,4.077,4.077,0,0,1,3.949,3.789c.549,4.735-1.128,8.765-4.058,12.346a10.6,10.6,0,0,1-4.02,3.372c-1.174.481-2.431.759-3.65,1.129m-2.182-4.511.088.015c0,.234-.018.47,0,.7.2,2.187,1.974,3.227,3.863,2.107a8.21,8.21,0,0,0,2.541-2.356,30.323,30.323,0,0,0,4.623-11.667,4.608,4.608,0,0,0-.1-1.909c-.488-1.936-1.905-2.585-3.6-1.569a8.169,8.169,0,0,0-2.181,1.986,28,28,0,0,0-4.845,10.63c-.167.678-.265,1.374-.4,2.061" transform="translate(-1238.328 90.327)" fill="#00a148"></path><path id="Path_35" data-name="Path 35" d="M185.214,524.182c-.482.351-.65.582-.819.581-3.063-.009-6.126-.046-9.213-.078-.011-.988.69-.866,1.119-1,1.463-.461,1.79-.793,1.949-2.3a15.16,15.16,0,0,0,.028-1.584c0-7.632-.026-15.263.02-22.895.011-1.905-.137-3.64-2-4.709-.074-.042-.075-.211-.183-.552,1.685-.922,3.606-1.366,5.6-2.407,0,1.324.028,2.36-.007,3.393-.042,1.227-.2,2.453-.2,3.68q-.03,10.831,0,21.662c0,1.17.1,2.342.222,3.507.165,1.607.368,1.806,1.959,2.254.382.108.762.223,1.529.449" transform="translate(-837.848 118.746)" fill="#0064a8"></path><path id="Path_36" data-name="Path 36" d="M262.7,539.912c-.745.039-1.437.1-2.129.1-3,.012-6.007-.014-9.01.021a15.015,15.015,0,0,0-2.049.284A9.251,9.251,0,0,0,253.524,550c3.055,1.7,5.756,1.331,9.128-1.472.047.394.2.74.094.948a6.8,6.8,0,0,1-3.773,3.286c-4.945,1.84-10.575.286-12.284-5.356a12.625,12.625,0,0,1-.5-4.167,10.935,10.935,0,0,1,3.143-7.639,9.079,9.079,0,0,1,8.915-2.479,5.7,5.7,0,0,1,4.455,6.792m-12.826-1.44c.212.191.292.327.383.336a28.143,28.143,0,0,0,8.06-.182,1.306,1.306,0,0,0,1.076-1.853,4.433,4.433,0,0,0-1.228-1.865,4.308,4.308,0,0,0-4.817-.385c-1.712.8-3.189,1.923-3.474,3.95" transform="translate(-883.754 90.563)" fill="#0064a8"></path><path id="Path_37" data-name="Path 37" d="M219.87,524.573c-.151.335-.193.524-.243.526-.988.053-1.976.111-2.965.113-2.18,0-4.361-.022-6.572-.035.047-1.027.749-.966,1.173-1.019,1.333-.168,1.754-1.043,1.884-2.179a15.3,15.3,0,0,0,.064-1.76q.006-11.023,0-22.046c0-3.434,0-3.434-2.082-5.75.637-.773,2.507-1.631,5.458-2.464.013.667.051,1.282.032,1.895-.067,2.171-.212,4.34-.221,6.511-.029,7-.017,13.991,0,20.988,0,.877.123,1.754.17,2.632a2.146,2.146,0,0,0,2.057,2.223,9.606,9.606,0,0,1,1.244.366" transform="translate(-860.421 118.28)" fill="#0064a8"></path><path id="Path_38" data-name="Path 38" d="M76.985,545.6a3.728,3.728,0,0,1-.346,1.01c-1.535,1.759-5.927,2.422-7.884,1.192a4,4,0,0,1-1.831-3.6c-.024-2.172-.022-4.345-.026-6.518,0-1.82.016-3.641-.011-5.46a16,16,0,0,0-.21-1.73l-2.469-.408-.1-.333a19.912,19.912,0,0,0,3.174-1.846,22.317,22.317,0,0,0,2.491-2.942c1.032.959.181,2.179.875,3.242,1.913.474,4.046-.089,6.251.315.058.5.113.993.2,1.723H70.615a7.977,7.977,0,0,0-.275,1.352c-.018,3.64-.06,7.282.024,10.92a5.982,5.982,0,0,0,.767,2.65,3.318,3.318,0,0,0,4.051,1.195c.52-.192,1.023-.429,1.8-.76" transform="translate(-766.02 95.646)" fill="#0064a8"></path><path id="Path_39" data-name="Path 39" d="M302.87,533.465l5.094-2.485c.1,1.26.179,2.313.286,3.686a20.854,20.854,0,0,1,2.074-1.506,18.35,18.35,0,0,1,3.169-1.458,1.908,1.908,0,0,1,2.258.944,2.1,2.1,0,0,1-.307,2.307,1.894,1.894,0,0,1-2.407.38c-.324-.138-.626-.328-.95-.467a2.529,2.529,0,0,0-3.767,1.869,7.886,7.886,0,0,0-.148,1.753c-.014,3.117-.032,6.233,0,9.35.022,2.236.406,2.636,2.591,2.985.427.069.848.17,1.37.276-.167.31-.241.572-.319.573q-4.832.07-9.663.081c-.165,0-.33-.232-.778-.57a18.7,18.7,0,0,1,1.828-.6,1.6,1.6,0,0,0,1.361-1.422,12.5,12.5,0,0,0,.2-1.919c.02-3.116-.046-6.235.033-9.349.039-1.52-.214-2.8-1.587-3.659a1.267,1.267,0,0,1-.306-.416c-.026-.042-.011-.11-.026-.355" transform="translate(-919.449 91.753)" fill="#0064a8"></path><path id="Path_46" data-name="Path 46" d="M719.913,543.146c2.916-.8,4.309-3.047,6.416-4.338-.077,1.38-2.016,3.678-4.6,5.422-1.572,1.06-3.094,2.409-5.191,1.695a2.242,2.242,0,0,1-.1-2.285q1.781-5.337,3.587-10.666c.482-1.431.96-2.863,1.453-4.336-1.2-.855-2.534-.138-3.907-.718.411-.3.693-.678.968-.673,2.785.05,4.454-1.387,5.408-3.872a9.121,9.121,0,0,1,.693-1.225c.361-.626.866-.7,1.674-.331l-1.222,4.941h5.178a3.088,3.088,0,0,1,.194.73,3.988,3.988,0,0,1-.181.7c-1.4,0-2.739.033-4.077-.01a1.993,1.993,0,0,0-2.244,1.513c-1.26,3.845-2.594,7.667-3.861,11.51a9.864,9.864,0,0,0-.18,1.942" transform="translate(-1187.68 97.822)" fill="#00a148"></path><path id="Path_47" data-name="Path 47" d="M755.835,553.9a11.073,11.073,0,0,1,.406-2.076c1.825-4.448,3.705-8.873,5.544-13.316.249-.6.843-1.212.152-1.985-1.771.11-2.739,1.849-4.409,2.364.8-2.544,5.889-5.488,8.559-4.847a17.743,17.743,0,0,1-.605,2.273c-1.64,4.017-3.334,8.011-4.985,12.023-.368.894-.964,1.749-.727,2.885,1.383.438,2.183-.6,3.087-1.213s1.692-1.387,2.663-1.975c-.071,1.506-1.323,2.183-2.248,3.008-2.64,2.353-4.871,3.213-7.436,2.857" transform="translate(-1213.333 89.834)" fill="#00a148"></path><path id="Path_48" data-name="Path 48" d="M779.976,503.848c-1.124-1.076-.769-2.161-.144-3.229.611-1.044,1-1.161,2.721-.929,1.111.974.8,2.11.232,3.179a2.139,2.139,0,0,1-2.809.979" transform="translate(-1228.472 112.052)" fill="#00a148"></path></g></svg> 